<?xml version="1.0" standalone="no"?>
<!DOCTYPE svg PUBLIC "-//W3C//DTD SVG 20010904//EN"
 "http://www.w3.org/TR/2001/REC-SVG-20010904/DTD/svg10.dtd">
<svg version="1.0" xmlns="http://www.w3.org/2000/svg"
 width="176.000000pt" height="216.000000pt" viewBox="0 0 176.000000 216.000000"
 preserveAspectRatio="xMidYMid meet">

<g transform="translate(0.000000,216.000000) scale(0.100000,-0.100000)"
fill="#603773" stroke="none">
<path d="M819 2150 c-190 -24 -344 -98 -448 -216 -50 -57 -73 -107 -113 -242
-26 -89 -31 -125 -32 -217 -1 -60 -5 -117 -10 -125 -5 -8 -49 -74 -97 -147
-48 -72 -90 -141 -94 -153 -11 -33 23 -71 79 -90 l48 -16 3 -97 c2 -93 4 -100
34 -138 30 -37 32 -43 25 -95 -8 -67 13 -129 54 -159 23 -17 48 -21 167 -25
77 -3 146 -9 152 -13 20 -13 33 -76 48 -239 8 -84 15 -159 15 -165 0 -19 946
-19 953 0 2 6 -11 70 -30 142 -136 523 -136 558 17 815 125 209 170 351 170
533 -1 261 -127 452 -381 572 -130 61 -392 96 -560 75z m2 -222 c34 -10 38
-14 33 -35 -8 -30 8 -30 49 1 43 32 102 49 146 43 66 -8 134 -45 164 -88 29
-42 51 -44 41 -3 -9 34 14 32 88 -8 61 -32 115 -89 103 -108 -3 -5 -19 -10
-34 -10 -16 0 -34 -7 -41 -15 -14 -17 -15 -17 60 -19 41 -1 64 -7 89 -25 134
-96 64 -384 -89 -369 -32 3 -35 6 -38 37 -3 26 3 40 26 65 40 42 52 68 52 110
0 25 -4 36 -15 36 -9 0 -15 -9 -15 -25 0 -40 -25 -89 -53 -108 -15 -10 -46
-17 -72 -17 -62 0 -63 -26 0 -36 38 -5 45 -10 45 -29 0 -74 -54 -126 -136
-133 -46 -4 -56 -1 -78 21 -15 15 -28 43 -32 67 -4 23 -11 39 -18 37 -11 -4
-12 -41 -5 -102 4 -26 0 -31 -31 -42 -91 -31 -200 -3 -241 63 -26 42 -29 117
-6 160 37 71 124 136 215 162 65 18 83 35 41 40 -38 4 -127 -33 -188 -79 l-53
-40 -24 22 c-62 58 -2 146 131 193 58 21 87 42 104 75 22 40 -3 46 -32 8 -17
-23 -44 -41 -85 -55 -71 -26 -72 -26 -72 -4 0 42 -75 123 -100 107 -7 -4 4
-23 30 -51 50 -54 53 -88 10 -129 -16 -16 -32 -43 -36 -61 -3 -18 -12 -35 -20
-38 -23 -9 -16 -23 21 -45 20 -11 38 -27 41 -35 3 -9 -5 -42 -18 -76 -20 -53
-27 -61 -56 -66 -64 -12 -114 2 -151 42 -30 33 -33 40 -29 86 l5 49 -28 -6
c-38 -9 -85 36 -95 89 -8 46 10 112 39 144 26 28 87 45 132 36 38 -7 85 -45
85 -69 0 -8 7 -15 15 -15 8 0 15 9 15 19 0 31 -45 76 -89 90 -22 6 -43 16 -46
21 -10 16 25 65 59 86 67 41 125 51 187 32z m629 -692 c0 -30 -42 -81 -84
-103 -18 -10 -52 -16 -83 -15 -40 1 -53 -2 -53 -13 0 -14 48 -27 85 -22 19 2
20 -3 17 -67 -5 -134 -44 -161 -78 -54 -24 73 -34 89 -88 148 -20 21 -36 43
-36 48 0 6 27 8 63 5 74 -6 132 17 169 67 16 23 30 30 55 30 28 0 33 -3 33
-24z"/>
<path d="M1110 1714 c-41 -18 -44 -20 -36 -33 4 -6 22 -4 51 6 84 28 145 -12
145 -96 0 -63 -52 -111 -146 -136 -38 -10 -85 -26 -105 -36 -40 -20 -99 -82
-99 -104 0 -26 29 -16 45 15 21 40 46 55 155 91 144 46 180 82 180 177 0 102
-93 158 -190 116z"/>
<path d="M527 1654 c-13 -13 -7 -24 13 -24 75 0 123 -89 88 -165 -15 -34 -1
-45 23 -16 38 47 15 161 -38 189 -27 14 -78 24 -86 16z"/>
</g>
</svg>
