<?xml version="1.0" standalone="no"?>
<!DOCTYPE svg PUBLIC "-//W3C//DTD SVG 20010904//EN"
        "http://www.w3.org/TR/2001/REC-SVG-20010904/DTD/svg10.dtd">
<svg version="1.0" xmlns="http://www.w3.org/2000/svg"
     width="180.000000pt" height="237.000000pt" viewBox="0 0 180.000000 237.000000"
     preserveAspectRatio="xMidYMid meet">

    <g transform="translate(0.000000,237.000000) scale(0.100000,-0.100000)"
       fill="#9B7CB7" stroke="none">
        <path d="M1108 2292 c-10 -139 -81 -241 -266 -384 -139 -108 -247 -218 -283
-290 -73 -144 -9 -278 220 -468 58 -48 58 -47 -25 80 -67 104 -88 170 -82 259
7 95 32 135 155 247 242 222 281 270 310 381 17 65 13 160 -10 214 l-14 34 -5
-73z"/>
        <path d="M1290 1907 c-169 -76 -238 -116 -310 -183 -22 -21 -55 -67 -72 -102
-55 -112 -41 -190 65 -344 64 -94 69 -127 33 -211 -16 -36 -16 -38 1 -28 33
18 102 96 118 133 8 21 15 57 15 80 0 42 -6 55 -86 193 -24 42 -29 61 -28 116
0 57 5 73 32 116 40 62 116 135 200 191 72 49 82 62 32 39z"/>
        <path d="M1505 1110 c-4 -6 7 -10 26 -10 69 0 129 -67 129 -144 -1 -77 -74
-180 -175 -246 -36 -23 -64 -45 -61 -47 8 -8 156 56 201 87 90 62 144 138 145
203 0 64 -53 134 -119 156 -42 14 -138 15 -146 1z"/>
        <path d="M490 1089 c-153 -25 -250 -64 -250 -101 0 -58 300 -117 595 -118 146
0 350 21 440 44 131 35 146 44 103 67 -16 8 -35 9 -72 1 -181 -38 -256 -45
-471 -45 -188 1 -234 4 -314 22 -109 25 -133 36 -129 59 4 22 39 38 130 61 77
20 61 25 -32 10z"/>
        <path d="M435 794 c-54 -20 -89 -48 -82 -66 8 -22 79 -52 182 -78 80 -21 115
-23 305 -24 137 0 237 5 275 13 78 16 195 53 195 61 0 4 -17 16 -38 28 l-38
21 -114 -20 c-81 -14 -164 -21 -280 -21 -249 -2 -385 33 -339 88 15 19 -12 18
-66 -2z"/>
        <path d="M521 522 c-48 -19 -68 -41 -58 -65 9 -23 91 -62 167 -78 86 -18 356
-19 430 0 70 17 150 44 150 51 0 3 -21 18 -47 34 l-48 29 -80 -14 c-102 -17
-334 -16 -395 3 -28 9 -49 22 -55 36 -11 26 -8 26 -64 4z"/>
        <path d="M250 446 c-69 -16 -155 -52 -197 -83 -39 -28 -44 -70 -14 -97 31 -28
142 -64 264 -85 418 -74 995 -44 1212 61 77 38 95 55 95 89 0 39 -13 43 -41
12 -31 -34 -83 -56 -199 -87 -153 -40 -266 -51 -525 -51 -254 0 -329 8 -494
51 -126 33 -171 58 -171 95 0 21 46 61 91 78 19 7 43 17 54 21 l20 9 -20 -1
c-11 0 -45 -6 -75 -12z"/>
        <path d="M1688 232 c-17 -18 -121 -72 -173 -90 -75 -27 -214 -57 -354 -77
-178 -25 -640 -19 -791 10 -19 4 -21 3 -9 -4 9 -6 69 -20 135 -32 103 -19 155
-22 389 -22 255 0 277 1 400 27 181 38 241 55 305 87 65 33 91 54 115 92 19
30 9 35 -17 9z"/>
    </g>
</svg>
