<?xml version="1.0" standalone="no"?>
<!DOCTYPE svg PUBLIC "-//W3C//DTD SVG 20010904//EN"
        "http://www.w3.org/TR/2001/REC-SVG-20010904/DTD/svg10.dtd">
<svg version="1.0" xmlns="http://www.w3.org/2000/svg"
     width="275.000000pt" height="247.000000pt" viewBox="0 0 275.000000 247.000000"
     preserveAspectRatio="xMidYMid meet">

    <g transform ="translate(0.000000,247.000000) scale(0.100000,-0.100000)"
       fill="#603773" stroke="none">
        <path d="M874 1708 c24 -29 53 -60 63 -69 10 -9 114 -113 231 -232 172 -175
217 -215 230 -208 19 10 552 547 552 555 0 3 -252 6 -561 6 l-561 0 46 -52z"/>
        <path d="M1882 1576 c-73 -74 -132 -140 -132 -147 0 -6 52 -65 115 -129 63
-64 115 -120 115 -125 0 -4 -52 -61 -115 -126 -63 -64 -115 -123 -115 -130 0
-14 234 -255 263 -270 15 -9 58 30 278 251 143 144 259 268 257 276 -4 16
-514 534 -526 534 -5 0 -68 -60 -140 -134z"/>
        <path d="M476 1441 c-224 -224 -257 -261 -248 -277 6 -11 126 -133 266 -273
l256 -255 27 24 c56 49 253 254 253 263 0 5 -42 51 -92 101 -51 50 -105 105
-121 123 l-28 32 115 115 c75 73 116 122 116 135 0 25 -244 271 -269 271 -9 0
-132 -117 -275 -259z"/>
        <path d="M1097 873 l-277 -278 279 -3 c154 -1 409 -1 568 0 l287 3 -273 278
c-151 152 -281 277 -291 277 -9 0 -141 -125 -293 -277z"/>
    </g>
</svg>
